P3
80 45
255
191 172 172 191 172 172 191 172 172 190 171 171 190 171 171 189 170
170 189 170 170 188 170 170 188 169 169 188 169 169 187 169 169 187 168 168 186 168 168 186 167 167 185 167 167 185 167 167 185 166 166 184 166 166 184 165 165 183 165 165 183 165 165 182 164 164 182 164 164 181 163 163 181 163 163 181 163 163 180 162 162 180 162 162 179 161 161 179 161 161 178 161 161 178 160 160 178 160 160 177 159 159 177 159 159 176 159 159 176 158 158 175 158 158 175 157 157 174 157 157 174 157 157 174 156 156 173 156 156 173 155 155 172 155 155 172 155 155 171 154 154 171 154 154 171 154 154 170 153 153 170 153 153 169 152 152 169 152 152 168 152 152 168 151 151 168 151 151 167 150 150 167 150 150 166 150 150 166 149 149 165 149 149 165 149 149 165 148 148 164 148 148 164 147 147 163 147 147 163 147 147 163 146 146 162 146 146 162 146 146 161 145 145 161 145 145 160 144 144 160 144 144 160 144 144 159 143 143 159 143 143 158 143 143 158 142 142 158 142 142
191 172 172 191 172 172 190 171 171 190 171 171 189 170 170 189 170
170 189 170 170 188 169 169 188 169 169 187 169 169 187 168 168 186 168 168 186 167 167 185 167 167 185 167 167 185 166 166 184 166 166 184 165 165 183 165 165 183 165 165 182 164 164 182 164 164 182 163 163 181 163 163 181 163 163 180 162 162 180 162 162 179 162 162 179 161 161 179 161 161 178 160 160 178 160 160 177 160 160 177 159 159 176 159 159 176 158 158 175 158 158 175 158 158 175 157 157 174 157 157 174 156 156 173 156 156 173 156 156 172 155 155 172 155 155 172 154 154 171 154 154 171 154 154 170 153 153 170 153 153 169 153 153 169 152 152 169 152 152 168 151 151 168 151 151 167 151 151 167 150 150 166 150 150 166 149 149 166 149 149 165 149 149 165 148 148 164 148 148 164 148 148 163 147 147 163 147 147 163 146 146 162 146 146 162 146 146 161 145 145 161 145 145 161 145 145 160 144 144 160 144 144 159 143 143 159 143 143 159 143 143 158 142 142 158 142 142 157 142 142
191 172 172 190 171 171 190 171 171 189 170 170 189 170 170 189 170
170 188 169 169 188 169 169 187 169 169 187 168 168 186 168 168 186 167 167 186 167 167 185 167 167 185 166 166 184 166 166 184 165 165 183 165 165 183 165 165 183 164 164 182 164 164 182 164 164 181 163 163 181 163 163 180 162 162 180 162 162 179 162 162 179 161 161 179 161 161 178 160 160 178 160 160 177 160 160 177 159 159 176 159 159 176 158 158 176 158 158 175 158 158 175 157 157 174 157 157 174 157 157 173 156 156 173 156 156 173 155 155 172 155 155 172 155 155 171 154 154 171 154 154 170 153 153 170 153 153 170 153 153 169 152 152 169 152 152 168 151 151 168 151 151 167 151 151 167 150 150 167 150 150 166 150 150 166 149 149 165 149 149 165 148 148 164 148 148 164 148 148 164 147 147 163 147 147 163 147 147 162 146 146 162 146 146 162 145 145 161 145 145 161 145 145 160 144 144 160 144 144 160 144 144 159 143 143 159 143 143 158 143 143 158 142 142 158 142 142 157 141 141
190 171 171 190 171 171 189 170 170 189 170 170 189 170 170 188 169
169 188 169 169 187 169 169 187 168 168 186 168 168 186 167 167 186 167 167 185 167 167 185 166 166 184 166 166 184 166 166 183 165 165 183 165 165 183 164 164 182 164 164 182 164 164 181 163 163 181 163 163 180 162 162 180 162 162 180 162 162 179 161 161 179 161 161 178 160 160 178 160 160 177 160 160 177 159 159 177 159 159 176 159 159 176 158 158 175 158 158 175 157 157 174 157 157 174 157 157 174 156 156 173 156 156 173 155 155 172 155 155 172 155 155 171 154 154 171 154 154 171 154 154 170 153 153 170 153 153 169 152 152 169 152 152 168 152 152 168 151 151 168 151 151 167 150 150 167 150 150 166 150 150 166 149 149 165 149 149 165 149 149 165 148 148 164 148 148 164 147 147 163 147 147 163 147 147 163 146 146 162 146 146 162 146 146 161 145 145 161 145 145 160 144 144 160 144 144 160 144 144 159 143 143 159 143 143 158 143 143 158 142 142 158 142 142 157 142 142 157 141 141
190 171 171 189 170 170 189 170 170 189 170 170 188 169 169 188 169
169 187 169 169 187 168 168 186 168 168 186 167 167 186 167 167 185 167 167 185 166 166 184 166 166 184 166 166 184 165 165 183 165 165 183 164 164 182 164 164 182 164 164 181 163 163 181 163 163 181 163 163 180 162 162 180 162 162 179 161 161 179 161 161 178 161 161 178 160 160 177 160 160 177 159 159 177 159 159 176 159 159 176 158 158 175 158 158 175 157 157 174 157 157 174 157 157 174 156 156 173 156 156 173 156 156 172 155 155 172 155 155 171 154 154 171 154 154 171 154 154 170 153 153 170 153 153 169 152 152 169 152 152 169 152 152 168 151 151 168 151 151 167 151 151 167 150 150 166 150 150 166 149 149 166 149 149 165 149 149 165 148 148 164 148 148 164 148 148 163 147 147 163 147 147 163 146 146 162 146 146 162 146 146 161 145 145 161 145 145 161 145 145 160 144 144 160 144 144 159 144 144 159 143 143 159 143 143 158 142 142 158 142 142 157 142 142 157 141 141 157 141 141
189 170 170 189 170 170 189 170 170 188 169 169 188 169 169 187 169
169 187 168 168 186 168 168 186 168 168 186 167 167 185 167 167 185 166 166 184 166 166 184 166 166 184 165 165 183 165 165 183 164 164 182 164 164 182 164 164 181 163 163 181 163 163 181 163 163 180 162 162 180 162 162 179 161 161 179 161 161 178 161 161 178 160 160 178 160 160 177 159 159 177 159 159 176 159 159 176 158 158 175 158 158 175 158 158 175 157 157 174 157 157 174 156 156 173 156 156 173 156 156 172 155 155 172 155 155 172 154 154 171 154 154 171 154 154 170 153 153 170 153 153 169 153 153 169 152 152 169 152 152 168 151 151 168 151 151 167 151 151 167 150 150 167 150 150 166 150 150 166 149 149 165 149 149 165 148 148 164 148 148 164 148 148 164 147 147 163 147 147 163 147 147 162 146 146 162 146 146 162 145 145 161 145 145 161 145 145 160 144 144 160 144 144 160 144 144 159 143 143 159 143 143 158 143 143 158 142 142 158 142 142 157 142 142 157 141 141 156 141 141
189 170 170 189 170 170 188 169 169 188 169 169 187 169 169 187 168
168 186 168 168 186 168 168 186 167 167 185 167 167 185 166 166 184 166 166 184 166 166 184 165 165 183 165 165 183 165 165 182 164 164 182 164 164 181 163 163 181 163 163 181 163 163 180 162 162 180 162 162 179 161 161 179 161 161 179 161 161 178 160 160 178 160 160 177 160 160 177 159 159 176 159 159 176 158 158 176 158 158 175 158 158 175 157 157 174 157 157 174 156 156 173 156 156 173 156 156 173 155 155 172 155 155 172 155 155 171 154 154 171 154 154 170 153 153 170 153 153 170 153 153 169 152 152 169 152 152 168 152 152 168 151 151 167 151 151 167 150 150 167 150 150 166 150 150 166 149 149 165 149 149 165 149 149 165 148 148 164 148 148 164 147 147 163 147 147 163 147 147 163 146 146 162 146 146 162 146 146 161 145 145 161 145 145 161 145 145 160 144 144 160 144 144 159 143 143 159 143 143 159 143 143 158 142 142 158 142 142 157 142 142 157 141 141 157 141 141 156 141 141
189 170 170 188 169 169 188 169 169 187 169 169 187 168 168 186 168
168 186 168 168 186 167 167 185 167 167 185 166 166 184 166 166 184 166 166 184 165 165 183 165 165 183 165 165 182 164 164 182 164 164 182 163 163 181 163 163 181 163 163 180 162 162 180 162 162 179 162 162 179 161 161 179 161 161 178 160 160 178 160 160 177 160 160 177 159 159 176 159 159 176 158 158 176 158 158 175 158 158 175 157 157 174 157 157 174 157 157 173 156 156 173 156 156 173 155 155 172 155 155 172 155 155 171 154 154 171 154 154 171 154 154 170 153 153 170 153 153 169 152 152 169 152 152 168 152 152 168 151 151 168 151 151 167 151 151 167 150 150 166 150 150 166 149 149 166 149 149 165 149 149 165 148 148 164 148 148 164 148 148 163 147 147 163 147 147 163 146 146 162 146 146 162 146 146 161 145 145 161 145 145 161 145 145 160 144 144 160 144 144 159 144 144 159 143 143 159 143 143 158 142 142 158 142 142 157 142 142 157 141 141 157 141 141 156 141 141 156 140 140
188 169 169 188 169 169 187 169 169 187 168 168 186 168 168 186 168
168 186 167 167 185 167 167 185 166 166 184 166 166 184 166 166 184 165 165 183 165 165 183 165 165 182 164 164 182 164 164 182 163 163 181 163 163 181 163 163 180 162 162 180 162 162 179 162 162 179 161 161 179 161 161 178 160 160 178 160 160 177 160 160 177 159 159 177 159 159 176 159 159 176 158 158 175 158 158 175 157 157 174 157 157 174 157 157 174 156 156 173 156 156 173 156 156 172 155 155 172 155 155 171 154 154 171 154 154 171 154 154 170 153 153 170 153 153 169 152 152 169 152 152 169 152 152 168 151 151 168 151 151 167 151 151 167 150 150 166 150 150 166 150 150 166 149 149 165 149 149 165 148 148 164 148 148 164 148 148 164 147 147 163 147 147 163 147 147 162 146 146 162 146 146 162 145 145 161 145 145 161 145 145 160 144 144 160 144 144 160 144 144 159 143 143 159 143 143 158 143 143 158 142 142 158 142 142 157 142 142 157 141 141 156 141 141 156 140 140 156 140 140
188 169 169 187 169 169 187 168 168 186 168 168 186 168 168 186 167
167 185 167 167 185 166 166 184 166 166 184 166 166 184 165 165 183 165 165 183 165 165 182 164 164 182 164 164 182 163 163 181 163 163 181 163 163 180 162 162 180 162 162 180 162 162 179 161 161 179 161 161 178 160 160 178 160 160 177 160 160 177 159 159 177 159 159 176 159 159 176 158 158 175 158 158 16 156 78 16 151 76 15 144 72 14 134 67 13 121 61 173 156 156 172 155 155 172 155 155 172 154 154 171 154 154 171 154 154 170 153 153 170 153 153 169 153 153 169 152 152 169 152 152 168 151 151 168 151 151 167 151 151 167 150 150 167 150 150 166 150 150 166 149 149 165 149 149 165 149 149 165 148 148 164 148 148 164 147 147 163 147 147 163 147 147 163 146 146 162 146 146 162 146 146 161 145 145 161 145 145 160 144 144 160 144 144 160 144 144 159 143 143 159 143 143 159 143 143 158 142 142 158 142 142 157 142 142 157 141 141 157 141 141 156 141 141 156 140 140 155 140 140
187 169 169 187 168 168 186 168 168 186 167 167 186 167 167 185 167
167 185 166 166 184 166 166 184 166 166 184 165 165 183 165 165 183 165 165 182 164 164 182 164 164 182 163 163 181 163 163 181 163 163 180 162 162 180 162 162 180 162 162 179 161 161 179 161 161 178 161 161 178 160 160 177 160 160 177 159 159 177 159 159 176 159 159 18 179 90 18 180 90 18 176 88 18 171 86 17 164 82 16 157 79 15 147 74 14 137 69 13 125 63 12 111 56 10 93 47 171 154 154 171 154 154 170 153 153 170 153 153 170 153 153 169 152 152 169 152 152 168 152 152 168 151 151 168 151 151 167 150 150 167 150 150 166 150 150 166 149 149 165 149 149 165 149 149 165 148 148 164 148 148 164 148 148 163 147 147 163 147 147 163 146 146 162 146 146 162 146 146 161 145 145 161 145 145 161 145 145 160 144 144 160 144 144 159 144 144 159 143 143 159 143 143 158 142 142 158 142 142 157 142 142 157 141 141 157 141 141 156 141 141 156 140 140 156 140 140 155 140 140
187 168 168 186 168 168 186 167 167 186 167 167 185 167 167 185 166
166 184 166 166 184 166 166 184 165 165 183 165 165 183 165 165 182 164 164 182 164 164 182 163 163 181 163 163 181 163 163 180 162 162 180 162 162 180 162 162 179 161 161 179 161 161 178 161 161 178 160 160 178 160 160 177 159 159 177 159 159 19 187 94 20 192 96 20 191 96 19 187 94 19 182 91 18 176 88 17 169 85 17 161 81 16 152 76 15 143 72 14 132 66 12 120 60 11 106 53 9 89 45 7 66 33 170 153 153 170 153 153 169 152 152 169 152 152 168 152 152 168 151 151 168 151 151 167 151 151 167 150 150 166 150 150 166 149 149 166 149 149 165 149 149 165 148 148 164 148 148 164 148 148 164 147 147 163 147 147 163 147 147 162 146 146 162 146 146 162 145 145 161 145 145 161 145 145 160 144 144 160 144 144 160 144 144 159 143 143 159 143 143 158 143 143 158 142 142 158 142 142 157 142 142 157 141 141 156 141 141 156 140 140 156 140 140 155 140 140 155 139 139
186 168 168 186 167 167 186 167 167 185 167 167 185 166 166 184 166
166 184 166 166 184 165 165 183 165 165 183 165 165 182 164 164 182 164 164 182 163 163 181 163 163 181 163 163 180 162 162 180 162 162 180 162 162 179 161 161 179 161 161 178 161 161 178 160 160 178 160 160 177 159 159 177 159 159 20 195 98 20 199 100 20 198 99 20 194 97 19 190 95 19 184 92 18 178 89 18 171 86 17 163 82 16 154 77 15 145 73 14 135 68 13 123 62 12 111 56 10 97 49 8 80 40 6 58 29 169 152 152 169 152 152 169 152 152 168 151 151 168 151 151 167 151 151 167 150 150 166 150 150 166 150 150 166 149 149 165 149 149 165 148 148 164 148 148 164 148 148 164 147 147 163 147 147 163 147 147 162 146 146 162 146 146 162 146 146 161 145 145 161 145 145 160 144 144 160 144 144 160 144 144 159 143 143 159 143 143 158 143 143 158 142 142 158 142 142 157 142 142 157 141 141 157 141 141 156 141 141 156 140 140 155 140 140 155 140 140 155 139 139
186 167 167 186 167 167 185 167 167 185 166 166 184 166 166 184 166
166 184 165 165 183 165 165 183 165 165 182 164 164 182 164 164 182 163 163 181 163 163 181 163 163 180 162 162 180 162 162 180 162 162 179 161 161 179 161 161 178 161 161 178 160 160 178 160 160 177 160 160 177 159 159 20 198 99 21 202 101 21 202 101 20 199 100 20 195 98 19 190 95 19 184 92 18 178 89 18 171 86 17 163 82 16 154 77 15 145 73 14 135 68 13 125 63 12 113 57 10 100 50 9 85 43 7 67 34 5 44 22 169 152 152 168 151 151 168 151 151 167 151 151 167 150 150 167 150 150 166 150 150 166 149 149 165 149 149 165 149 149 165 148 148 164 148 148 164 147 147 163 147 147 163 147 147 163 146 146 162 146 146 162 146 146 161 145 145 161 145 145 161 145 145 160 144 144 160 144 144 159 143 143 159 143 143 159 143 143 158 142 142 158 142 142 157 142 142 157 141 141 157 141 141 156 141 141 156 140 140 155 140 140 155 140 140 155 139 139 154 139 139
185 167 167 185 167 167 185 166 166 184 166 166 184 166 166 184 165
165 183 165 165 183 165 165 182 164 164 182 164 164 182 163 163 181 163 163 181 163 163 180 162 162 180 162 162 180 162 162 179 161 161 179 161 161 178 161 161 178 160 160 178 160 160 177 160 160 177 159 159 20 196 98 21 203 102 21 204 102 21 202 101 20 199 100 20 194 97 19 189 95 19 183 92 18 177 89 17 169 85 17 162 81 16 153 77 15 144 72 14 135 68 13 124 62 12 113 57 11 101 51 9 87 44 8 71 36 6 52 26 3 26 13 168 151 151 167 151 151 167 150 150 167 150 150 166 150 150 166 149 149 165 149 149 165 149 149 165 148 148 164 148 148 164 148 148 163 147 147 163 147 147 163 146 146 162 146 146 162 146 146 161 145 145 161 145 145 161 145 145 160 144 144 160 144 144 159 144 144 159 143 143 159 143 143 158 143 143 158 142 142 158 142 142 157 141 141 157 141 141 156 141 141 156 140 140 156 140 140 155 140 140 155 139 139 154 139 139 154 139 139
185 167 167 185 166 166 184 166 166 184 166 166 184 165 165 183 165
165 183 165 165 182 164 164 182 164 164 182 163 163 181 163 163 181 163 163 180 162 162 180 162 162 180 162 162 179 161 161 179 161 161 178 161 161 178 160 160 178 160 160 177 160 160 177 159 159 176 159 159 21 202 101 21 204 102 21 204 102 21 201 101 20 197 99 20 192 96 19 187 94 19 181 91 18 174 87 17 167 84 16 159 80 16 151 76 15 142 71 14 133 67 13 123 62 12 112 56 10 100 50 9 87 44 8 72 36 6 55 28 4 33 17 3 26 13 167 150 150 167 150 150 166 150 150 166 149 149 166 149 149 165 149 149 165 148 148 164 148 148 164 148 148 164 147 147 163 147 147 163 147 147 162 146 146 162 146 146 162 145 145 161 145 145 161 145 145 160 144 144 160 144 144 160 144 144 159 143 143 159 143 143 158 143 143 158 142 142 158 142 142 157 142 142 157 141 141 156 141 141 156 141 141 156 140 140 155 140 140 155 140 140 155 139 139 154 139 139 154 138 138
185 166 166 184 166 166 184 165 165 183 165 165 183 165 165 183 164
164 182 164 164 182 164 164 182 163 163 181 163 163 181 163 163 180 162 162 180 162 162 180 162 162 179 161 161 179 161 161 178 161 161 178 160 160 178 160 160 177 160 160 177 159 159 176 159 159 20 196 98 21 202 101 21 203 102 21 201 101 20 198 99 20 194 97 19 190 95 19 184 92 18 178 89 18 171 86 17 164 82 16 157 79 15 148 74 14 140 70 13 130 65 12 120 60 11 110 55 10 98 49 9 85 43 8 71 36 6 55 28 4 36 18 3 26 13 167 150 150 166 150 150 166 149 149 166 149 149 165 149 149 165 148 148 164 148 148 164 148 148 164 147 147 163 147 147 163 147 147 162 146 146 162 146 146 162 146 146 161 145 145 161 145 145 160 144 144 160 144 144 160 144 144 159 143 143 159 143 143 159 143 143 158 142 142 158 142 142 157 142 142 157 141 141 157 141 141 156 141 141 156 140 140 155 140 140 155 140 140 155 139 139 154 139 139 154 139 139 154 138 138
184 166 166 184 165 165 183 165 165 183 165 165 183 164 164 182 164
164 182 164 164 181 163 163 181 163 163 181 163 163 180 162 162 180 162 162 180 162 162 179 161 161 179 161 161 178 161 161 178 160 160 178 160 160 177 160 160 177 159 159 176 159 159 176 158 158 20 197 99 21 201 101 21 201 101 20 198 99 20 195 98 20 191 96 38 205 112 35 197 107 18 175 88 17 168 84 17 161 81 16 153 77 15 145 73 14 136 68 13 127 64 12 117 59 11 107 54 10 95 48 9 83 42 7 69 35 6 54 27 4 36 18 3 26 13 3 26 13 166 150 150 166 149 149 165 149 149 165 148 148 164 148 148 164 148 148 164 147 147 163 147 147 163 147 147 163 146 146 162 146 146 162 146 146 161 145 145 161 145 145 161 145 145 160 144 144 160 144 144 159 143 143 159 143 143 159 143 143 158 142 142 158 142 142 157 142 142 157 141 141 157 141 141 156 141 141 156 140 140 156 140 140 155 140 140 155 139 139 154 139 139 154 139 139 154 138 138 153 138 138
184 165 165 183 165 165 183 165 165 183 164 164 182 164 164 182 164
164 181 163 163 181 163 163 181 163 163 180 162 162 180 162 162 180 162 162 179 161 161 179 161 161 178 161 161 178 160 160 178 160 160 177 160 160 177 159 159 176 159 159 176 158 158 19 185 93 20 195 98 20 198 99 20 197 99 20 195 98 20 191 96 20 188 95 67 231 140 34 192 104 18 170 85 17 164 82 16 156 78 15 149 75 15 141 71 14 132 66 13 123 62 12 113 57 11 103 52 10 92 46 8 80 40 7 66 33 6 51 26 4 34 17 3 26 13 3 26 13 166 149 149 165 149 149 165 149 149 165 148 148 164 148 148 164 147 147 163 147 147 163 147 147 163 146 146 162 146 146 162 146 146 161 145 145 161 145 145 161 145 145 160 144 144 160 144 144 159 144 144 159 143 143 159 143 143 158 143 143 158 142 142 158 142 142 157 142 142 157 141 141 156 141 141 156 140 140 156 140 140 155 140 140 155 139 139 155 139 139 154 139 139 154 138 138 153 138 138 153 138 138
183 165 165 183 165 165 183 164 164 182 164 164 182 164 164 181 163
163 181 163 163 181 163 163 180 162 162 180 162 162 179 162 162 179 161 161 179 161 161 178 161 161 178 160 160 178 160 160 177 160 160 177 159 159 176 159 159 176 158 158 176 158 158 19 185 93 20 192 96 20 193 97 20 192 96 19 190 95 19 186 93 19 182 91 20 179 90 18 172 86 17 166 83 16 159 80 16 152 76 15 144 72 14 136 68 13 128 64 12 119 60 11 109 55 10 99 50 9 88 44 8 76 38 7 62 31 5 48 24 4 31 16 3 26 13 3 26 13 165 149 149 165 149 149 165 148 148 164 148 148 164 148 148 163 147 147 163 147 147 163 146 146 162 146 146 162 146 146 161 145 145 161 145 145 161 145 145 160 144 144 160 144 144 160 144 144 159 143 143 159 143 143 158 143 143 158 142 142 158 142 142 157 142 142 157 141 141 157 141 141 156 141 141 156 140 140 155 140 140 155 140 140 155 139 139 154 139 139 154 139 139 154 138 138 153 138 138 153 138 138
183 165 165 182 164 164 182 164 164 182 164 164 181 163 163 181 163
163 181 163 163 180 162 162 180 162 162 179 162 162 179 161 161 179 161 161 178 161 161 178 160 160 178 160 160 177 160 160 177 159 159 176 159 159 176 158 158 176 158 158 175 158 158 19 181 91 19 187 94 19 188 94 19 187 94 19 185 93 19 181 91 18 177 89 18 172 86 17 166 83 16 160 80 16 154 77 15 147 74 14 139 70 14 131 66 13 123 62 12 114 57 11 104 52 10 94 47 9 83 42 8 71 36 6 58 29 5 43 22 3 27 14 3 26 13 3 26 13 165 149 149 165 148 148 164 148 148 164 148 148 164 147 147 163 147 147 163 147 147 162 146 146 162 146 146 162 145 145 161 145 145 161 145 145 160 144 144 160 144 144 160 144 144 159 143 143 159 143 143 158 143 143 158 142 142 158 142 142 157 142 142 157 141 141 157 141 141 156 141 141 156 140 140 155 140 140 155 140 140 155 139 139 154 139 139 154 139 139 154 138 138 153 138 138 153 138 138 152 137 137
182 164 164 182 164 164 182 163 163 181 163 163 181 163 163 181 163
163 180 162 162 180 162 162 179 162 162 179 161 161 179 161 161 178 160 160 178 160 160 178 160 160 177 159 159 177 159 159 176 159 159 176 158 158 176 158 158 175 158 158 175 157 157 18 176 88 19 182 91 19 183 92 19 181 91 18 179 90 18 175 88 18 171 86 17 166 83 17 161 81 16 155 78 15 148 74 15 141 71 14 134 67 13 126 63 12 117 59 11 108 54 10 99 50 9 88 44 8 77 39 7 66 33 6 53 27 4 38 19 3 26 13 3 26 13 3 26 13 165 148 148 164 148 148 164 148 148 164 147 147 163 147 147 163 147 147 162 146 146 162 146 146 162 146 146 161 145 145 161 145 145 160 144 144 160 144 144 160 144 144 159 143 143 159 143 143 159 143 143 158 142 142 158 142 142 157 142 142 157 141 141 157 141 141 156 141 141 156 140 140 156 140 140 155 140 140 155 139 139 154 139 139 154 139 139 154 138 138 153 138 138 153 138 138 153 137 137 152 137 137
182 164 164 182 163 163 181 163 163 181 163 163 180 162 162 180 162
162 180 162 162 179 161 161 179 161 161 179 161 161 178 160 160 178 160 160 177 160 160 177 159 159 177 159 159 176 159 159 176 158 158 176 158 158 175 158 158 175 157 157 174 157 157 17 169 85 18 175 88 18 176 88 18 175 88 18 173 87 17 169 85 17 165 83 16 160 80 16 154 77 15 148 74 15 142 71 14 135 68 13 128 64 12 120 60 12 111 56 11 102 51 10 93 47 9 82 41 8 71 36 6 60 30 5 47 24 4 32 16 3 26 13 3 26 13 3 26 13 164 148 148 164 148 148 164 147 147 163 147 147 163 147 147 162 146 146 162 146 146 162 146 146 161 145 145 161 145 145 161 145 145 160 144 144 160 144 144 159 144 144 159 143 143 159 143 143 158 142 142 158 142 142 158 142 142 157 141 141 157 141 141 156 141 141 156 140 140 156 140 140 155 140 140 155 139 139 155 139 139 154 139 139 154 138 138 153 138 138 153 138 138 153 137 137 152 137 137 152 137 137
181 163 163 181 163 163 181 163 163 180 162 162 180 162 162 180 162
162 179 161 161 179 161 161 179 161 161 178 160 160 178 160 160 177 160 160 177 159 159 177 159 159 176 159 159 176 158 158 176 158 158 175 158 158 175 157 157 174 157 157 174 157 157 16 160 80 17 167 84 17 169 85 17 168 84 17 165 83 17 162 81 16 158 79 16 153 77 15 148 74 15 142 71 14 135 68 13 128 64 13 121 61 12 113 57 11 105 53 10 96 48 9 86 43 8 76 38 7 65 33 6 53 27 4 40 20 3 26 13 3 26 13 3 26 13 3 26 13 164 148 148 164 147 147 163 147 147 163 147 147 163 146 146 162 146 146 162 146 146 161 145 145 161 145 145 161 145 145 160 144 144 160 144 144 159 144 144 159 143 143 68 136 14 74 148 15 71 142 15 65 129 13 52 103 11 157 141 141 156 141 141 156 141 141 156 140 140 155 140 140 155 140 140 155 139 139 154 139 139 154 139 139 154 138 138 153 138 138 153 138 138 152 137 137 152 137 137 152 137 137
181 163 163 181 163 163 180 162 162 180 162 162 180 162 162 179 161
161 179 161 161 178 161 161 178 160 160 178 160 160 177 160 160 177 159 159 177 159 159 176 159 159 176 158 158 176 158 158 175 158 158 175 157 157 174 157 157 174 157 157 174 156 156 15 149 75 16 158 79 16 160 80 16 160 80 16 158 79 16 155 78 16 151 76 15 146 73 15 141 71 14 135 68 13 128 64 13 121 61 12 114 57 11 106 53 10 98 49 9 89 45 8 79 40 7 69 35 6 57 29 5 45 23 4 32 16 3 26 13 3 26 13 3 26 13 3 26 13 164 147 147 163 147 147 163 147 147 163 146 146 162 146 146 162 146 146 161 145 145 161 145 145 161 145 145 160 144 144 160 144 144 160 144 144 83 165 17 90 180 18 91 182 19 89 178 18 86 171 18 80 159 16 72 144 15 62 124 13 47 93 10 156 140 140 155 140 140 155 140 140 155 139 139 154 139 139 154 139 139 154 138 138 153 138 138 153 138 138 152 137 137 152 137 137 152 137 137 151 136 136
181 163 163 180 162 162 180 162 162 179 162 162 179 161 161 179 161
161 178 161 161 178 160 160 178 160 160 177 160 160 177 159 159 177 159 159 176 159 159 176 158 158 175 158 158 175 158 158 175 157 157 174 157 157 174 157 157 174 156 156 173 156 156 14 133 67 15 147 74 16 151 76 16 151 76 15 149 75 15 146 73 15 142 71 14 138 69 14 133 67 13 127 64 13 121 61 12 114 57 11 106 53 10 98 49 9 90 45 9 81 41 8 71 36 7 61 31 5 49 25 4 37 19 3 26 13 3 26 13 3 26 13 3 26 13 3 26 13 163 147 147 163 147 147 163 146 146 162 146 146 162 146 146 161 145 145 161 145 145 161 145 145 160 144 144 160 144 144 160 144 144 89 178 18 97 193 20 98 196 20 98 195 20 95 190 19 91 181 19 86 171 18 79 157 16 70 140 14 60 119 12 45 89 9 155 140 140 155 139 139 154 139 139 154 139 139 154 138 138 153 138 138 153 138 138 153 137 137 152 137 137 152 137 137 151 136 136 151 136 136
180 162 162 180 162 162 179 161 161 179 161 161 179 161 161 178 161
161 178 160 160 178 160 160 177 160 160 177 159 159 176 159 159 176 159 159 176 158 158 175 158 158 175 158 158 175 157 157 174 157 157 174 157 157 174 156 156 173 156 156 173 156 156 172 155 155 14 135 68 14 140 70 15 141 71 14 140 70 14 137 69 14 134 67 13 129 65 13 124 62 12 118 59 12 112 56 11 105 53 10 98 49 9 90 45 9 82 41 8 72 36 7 63 32 6 52 26 5 41 21 3 28 14 3 26 13 3 26 13 3 26 13 3 26 13 163 147 147 163 147 147 163 146 146 162 146 146 162 146 146 162 145 145 161 145 145 161 145 145 160 144 144 160 144 144 160 144 144 87 174 18 98 195 20 101 202 21 102 203 21 100 200 20 97 194 20 93 186 19 88 176 18 82 163 17 74 147 15 64 128 13 53 105 11 36 72 8 154 139 139 154 139 139 154 138 138 153 138 138 153 138 138 153 137 137 152 137 137 152 137 137 152 136 136 151 136 136 151 136 136
180 162 162 179 161 161 179 161 161 179 161 161 178 160 160 178 160
160 177 160 160 177 159 159 177 159 159 176 159 159 176 159 159 176 158 158 175 158 158 175 158 158 175 157 157 174 157 157 174 157 157 174 156 156 173 156 156 173 156 156 172 155 155 172 155 155 12 118 59 13 127 64 13 130 65 13 129 65 13 127 64 13 124 62 12 120 60 12 115 58 11 109 55 11 103 52 10 96 48 9 89 45 9 81 41 8 72 36 7 63 32 6 53 27 5 43 22 4 31 16 3 26 13 3 26 13 3 26 13 3 26 13 3 26 13 163 147 147 163 146 146 162 146 146 162 146 146 162 145 145 161 145 145 161 145 145 160 144 144 160 144 144 160 144 144 159 143 143 94 188 19 100 200 20 102 204 21 102 204 21 100 200 20 97 194 20 93 186 19 88 176 18 82 164 17 75 149 15 66 132 14 56 111 12 42 84 9 22 43 5 154 138 138 153 138 138 153 138 138 153 137 137 152 137 137 152 137 137 152 137 137 151 136 136 151 136 136 151 136 136
179 161 161 179 161 161 178 161 161 178 160 160 178 160 160 177 160
160 177 159 159 177 159 159 176 159 159 176 158 158 176 158 158 175 158 158 175 157 157 175 157 157 174 157 157 174 156 156 173 156 156 173 156 156 173 156 156 172 155 155 172 155 155 172 155 155 171 154 154 12 112 56 12 117 59 12 118 59 12 116 58 12 113 57 11 110 55 11 105 53 10 99 50 10 93 47 9 87 44 8 79 40 8 71 36 7 63 32 6 53 27 5 43 22 4 32 16 3 26 13 3 26 13 3 26 13 3 26 13 3 26 13 163 147 147 163 147 147 162 146 146 162 146 146 162 145 145 161 145 145 161 145 145 160 144 144 160 144 144 160 144 144 159 143 143 83 165 17 96 191 20 100 200 20 102 203 21 101 202 21 108 206 29 96 192 20 92 184 19 87 174 18 81 162 17 74 148 15 66 131 14 56 111 12 44 87 9 27 54 6 154 138 138 153 138 138 153 138 138 152 137 137 152 137 137 152 137 137 151 136 136 151 136 136 151 136 136 150 135 135
179 161 161 178 161 161 178 160 160 178 160 160 177 160 160 177 159
159 177 159 159 176 159 159 176 158 158 176 158 158 175 158 158 175 157 157 174 157 157 174 157 157 169 135 17 156 125 16 135 108 14 107 86 11 65 52 7 172 155 155 172 154 154 171 154 154 171 154 154 9 86 43 11 101 51 11 104 52 11 104 52 11 101 51 10 98 49 10 94 47 9 88 44 9 82 41 8 76 38 7 68 34 6 60 30 6 52 26 5 42 21 4 32 16 3 26 13 3 26 13 3 26 13 3 26 13 3 26 13 3 26 13 163 147 147 162 146 146 162 146 146 162 146 146 161 145 145 161 145 145 161 145 145 160 144 144 160 144 144 159 144 144 159 143 143 84 167 17 94 187 19 98 195 20 99 198 20 99 197 20 112 208 35 94 187 19 90 179 18 85 169 17 79 157 16 72 144 15 64 127 13 54 108 11 43 85 9 28 55 6 13 26 3 153 138 138 152 137 137 152 137 137 152 137 137 151 136 136 151 136 136 151 136 136 150 135 135 150 135 135
178 160 160 178 160 160 178 160 160 177 160 160 177 159 159 176 159
159 176 159 159 176 158 158 175 158 158 175 158 158 175 157 157 174 157 157 189 151 19 194 155 20 181 145 19 164 131 17 142 113 15 116 93 12 85 68 9 45 36 5 171 154 154 171 154 154 170 153 153 170 153 153 8 76 38 9 86 43 9 89 45 9 88 44 9 85 43 9 81 41 8 76 38 7 70 35 7 64 32 6 56 28 5 48 24 4 39 20 3 30 15 3 26 13 3 26 13 3 26 13 3 26 13 3 26 13 3 26 13 163 147 147 162 146 146 162 146 146 162 146 146 161 145 145 161 145 145 161 145 145 160 144 144 160 144 144 159 144 144 159 143 143 159 143 143 81 161 17 90 180 18 94 188 19 95 190 19 95 189 19 93 185 19 90 180 18 86 172 18 81 162 17 76 151 16 69 137 14 61 121 13 51 102 11 40 80 8 26 51 6 13 26 3 153 137 137 152 137 137 152 137 137 151 136 136 151 136 136 151 136 136 150 135 135 150 135 135 150 135 135
178 160 160 177 160 160 177 159 159 177 159 159 176 159 159 176 158
158 176 158 158 175 158 158 175 158 158 175 157 157 174 157 157 174 157 157 203 163 21 194 155 20 179 143 18 160 128 16 138 111 14 113 91 12 84 67 9 49 39 5 26 21 3 170 153 153 170 153 153 170 153 153 169 152 152 6 59 30 7 69 35 8 71 36 7 69 35 7 66 33 7 62 31 6 56 28 5 50 25 5 43 22 4 34 17 3 26 13 3 26 13 3 26 13 3 26 13 3 26 13 3 26 13 3 26 13 163 147 147 162 146 146 162 146 146 162 146 146 161 145 145 161 145 145 161 145 145 160 144 144 160 144 144 159 144 144 159 143 143 159 143 143 158 143 143 75 149 15 85 169 17 89 178 18 90 180 18 90 179 18 88 176 18 85 170 17 82 163 17 77 153 16 71 142 15 64 128 13 56 112 12 47 94 10 36 72 8 22 43 5 13 26 3 152 137 137 152 137 137 152 136 136 151 136 136 151 136 136 150 135 135 150 135 135 150 135 135 149 135 135
177 160 160 177 159 159 177 159 159 176 159 159 176 158 158 176 158
158 175 158 158 175 157 157 175 157 157 174 157 157 174 157 157 202 162 21 199 159 20 188 151 20 172 137 18 152 122 16 130 104 13 105 84 11 77 61 8 44 35 5 26 21 3 170 153 153 170 153 153 169 152 152 169 152 152 169 152 152 168 151 151 5 47 24 5 50 25 5 48 24 5 45 23 4 40 20 4 34 17 3 26 13 3 26 13 3 26 13 3 26 13 3 26 13 3 26 13 3 26 13 3 26 13 163 147 147 162 146 146 162 146 146 162 146 146 161 145 145 161 145 145 161 145 145 160 144 144 160 144 144 160 144 144 159 143 143 159 143 143 158 143 143 158 142 142 65 129 13 77 154 16 82 164 17 84 168 17 84 167 17 82 164 17 80 159 16 76 151 16 71 142 15 66 131 14 59 117 12 51 101 11 42 83 9 30 60 6 15 30 3 13 26 3 152 137 137 152 136 136 151 136 136 151 136 136 151 136 136 150 135 135 150 135 135 150 135 135 149 134 134
177 159 159 176 159 159 176 159 159 176 158 158 175 158 158 175 158
158 175 157 157 174 157 157 174 157 157 174 156 156 173 156 156 195 156 20 189 151 19 177 142 19 160 128 16 141 113 15 119 95 12 94 75 10 66 53 7 33 26 4 26 21 3 26 21 3 169 152 152 169 152 152 169 152 152 168 151 151 168 151 151 167 151 151 3 26 13 3 26 13 3 26 13 3 26 13 3 26 13 3 26 13 3 26 13 3 26 13 3 26 13 3 26 13 3 26 13 163 147 147 163 147 147 162 146 146 162 146 146 162 146 146 161 145 145 161 145 145 161 145 145 160 144 144 160 144 144 160 144 144 159 143 143 159 143 143 158 143 143 158 142 142 158 142 142 42 83 9 67 134 14 74 147 15 76 152 16 76 152 16 75 150 15 73 145 15 69 138 14 64 128 13 59 117 12 52 104 11 44 88 9 35 69 7 23 45 5 13 26 3 152 137 137 152 137 137 151 136 136 151 136 136 151 136 136 150 135 135 150 135 135 150 135 135 149 134 134 149 134 134
170 153 153 170 153 153 169 152 152 169 152 152 169 152 152 168 152
152 168 151 151 168 151 151 167 151 151 167 150 150 167 150 150 182 146 19 175 140 18 162 130 17 146 117 15 126 101 13 104 83 11 79 63 8 51 41 6 26 21 3 26 21 3 26 21 3 163 147 147 162 146 146 162 146 146 162 146 146 161 145 145 161 145 145 161 145 145 160 144 144 160 144 144 160 144 144 3 26 13 3 26 13 3 26 13 158 143 143 158 142 142 158 142 142 157 142 142 157 141 141 157 141 141 156 141 141 156 140 140 156 140 140 155 140 140 155 140 140 155 139 139 154 139 139 154 139 139 154 138 138 153 138 138 153 138 138 153 137 137 152 137 137 152 137 137 152 137 137 53 105 11 63 125 13 66 132 14 67 134 14 67 133 14 64 128 13 61 121 13 56 112 12 51 101 11 44 87 9 36 71 8 26 51 6 13 26 3 13 26 3 147 132 132 146 132 132 146 131 131 146 131 131 145 131 131 145 131 131 145 130 130 144 130 130 144 130 130 144 129 129
171 154 154 171 154 154 170 153 153 170 153 153 170 153 153 169 152
152 169 152 152 169 152 152 168 152 152 168 151 151 168 151 151 165 132 17 158 127 16 145 116 15 129 103 13 109 88 11 87 70 9 62 50 7 33 27 4 26 21 3 26 21 3 164 148 148 164 148 148 164 147 147 163 147 147 163 147 147 163 146 146 162 146 146 162 146 146 162 145 145 161 145 145 161 145 145 161 145 145 160 144 144 160 144 144 160 144 144 159 143 143 159 143 143 159 143 143 158 143 143 158 142 142 158 142 142 157 142 142 157 141 141 157 141 141 156 141 141 156 140 140 156 140 140 155 140 140 155 140 140 155 139 139 154 139 139 154 139 139 154 138 138 153 138 138 153 138 138 153 137 137 47 94 10 54 107 11 56 112 12 56 112 12 54 108 11 51 102 11 47 93 10 41 81 9 34 67 7 25 50 5 14 28 3 13 26 3 148 134 134 148 133 133 148 133 133 147 133 133 147 132 132 147 132 132 147 132 132 146 132 132 146 131 131 146 131 131 145 131 131
172 155 155 171 154 154 171 154 154 171 154 154 171 154 154 170 153
153 170 153 153 170 153 153 169 152 152 169 152 152 169 152 152 141 113 15 137 109 14 125 100 13 109 87 11 89 71 9 67 53 7 41 33 5 26 21 3 26 21 3 26 21 3 165 149 149 165 148 148 165 148 148 164 148 148 164 148 148 164 147 147 163 147 147 163 147 147 163 146 146 162 146 146 162 146 146 162 146 146 161 145 145 161 145 145 161 145 145 160 144 144 160 144 144 160 144 144 159 143 143 159 143 143 159 143 143 158 143 143 158 142 142 158 142 142 157 142 142 157 141 141 157 141 141 156 141 141 156 141 141 156 140 140 156 140 140 155 140 140 155 139 139 155 139 139 154 139 139 154 139 139 154 138 138 35 70 7 41 82 9 43 85 9 42 83 9 39 77 8 34 68 7 29 57 6 21 41 5 13 26 3 13 26 3 150 135 135 150 135 135 149 135 135 149 134 134 149 134 134 149 134 134 148 133 133 148 133 133 148 133 133 147 133 133 147 132 132 147 132 132
173 155 155 172 155 155 172 155 155 172 154 154 171 154 154 171 154
154 171 154 154 170 153 153 170 153 153 170 153 153 169 153 153 101 81 11 109 88 11 100 80 10 84 67 9 65 52 7 42 34 5 26 21 3 26 21 3 26 21 3 166 150 150 166 150 150 166 149 149 165 149 149 165 149 149 165 148 148 164 148 148 164 148 148 164 148 148 164 147 147 163 147 147 163 147 147 163 146 146 162 146 146 162 146 146 162 146 146 161 145 145 161 145 145 161 145 145 160 144 144 160 144 144 160 144 144 159 144 144 159 143 143 159 143 143 158 143 143 158 142 142 158 142 142 158 142 142 157 142 142 157 141 141 157 141 141 156 141 141 156 140 140 156 140 140 155 140 140 155 140 140 155 139 139 154 139 139 15 29 3 23 45 5 24 47 5 22 44 5 18 35 4 13 26 3 13 26 3 13 26 3 152 137 137 151 136 136 151 136 136 151 136 136 150 135 135 150 135 135 150 135 135 149 135 135 149 134 134 149 134 134 149 134 134 148 133 133 148 133 133
173 156 156 173 156 156 173 155 155 172 155 155 172 155 155 172 155
155 171 154 154 171 154 154 171 154 154 170 153 153 170 153 153 170 153 153 64 51 7 66 53 7 53 43 6 34 28 4 26 21 3 26 21 3 26 21 3 167 151 151 167 150 150 167 150 150 167 150 150 166 150 150 166 149 149 166 149 149 165 149 149 165 149 149 165 148 148 164 148 148 164 148 148 164 147 147 163 147 147 163 147 147 163 147 147 163 146 146 162 146 146 162 146 146 162 145 145 161 145 145 161 145 145 161 145 145 160 144 144 160 144 144 160 144 144 159 144 144 159 143 143 159 143 143 159 143 143 158 142 142 158 142 142 158 142 142 157 142 142 157 141 141 157 141 141 156 141 141 156 141 141 156 140 140 155 140 140 155 140 140 155 139 139 155 139 139 154 139 139 154 139 139 154 138 138 153 138 138 153 138 138 153 138 138 152 137 137 152 137 137 152 137 137 152 136 136 151 136 136 151 136 136 151 136 136 150 135 135 150 135 135 150 135 135 149 135 135 149 134 134
174 156 156 173 156 156 173 156 156 173 156 156 173 155 155 172 155
155 172 155 155 172 155 155 171 154 154 171 154 154 171 154 154 171 154 154 170 153 153 170 153 153 26 21 3 26 21 3 26 21 3 169 152 152 168 152 152 168 151 151 168 151 151 168 151 151 167 151 151 167 150 150 167 150 150 166 150 150 166 149 149 166 149 149 165 149 149 165 149 149 165 148 148 165 148 148 164 148 148 164 148 148 164 147 147 163 147 147 163 147 147 163 147 147 162 146 146 162 146 146 162 146 146 162 145 145 161 145 145 161 145 145 161 145 145 160 144 144 160 144 144 160 144 144 159 144 144 159 143 143 159 143 143 159 143 143 158 142 142 158 142 142 158 142 142 157 142 142 157 141 141 157 141 141 156 141 141 156 141 141 156 140 140 156 140 140 155 140 140 155 140 140 155 139 139 154 139 139 154 139 139 154 138 138 154 138 138 153 138 138 153 138 138 153 137 137 152 137 137 152 137 137 152 137 137 151 136 136 151 136 136 151 136 136 151 136 136 150 135 135
174 157 157 174 157 157 174 156 156 173 156 156 173 156 156 173 156
156 173 155 155 172 155 155 172 155 155 172 155 155 171 154 154 171 154 154 171 154 154 171 154 154 170 153 153 170 153 153 170 153 153 169 152 152 169 152 152 169 152 152 168 152 152 168 151 151 168 151 151 168 151 151 167 151 151 167 150 150 167 150 150 166 150 150 166 150 150 166 149 149 166 149 149 165 149 149 165 149 149 165 148 148 164 148 148 164 148 148 164 147 147 163 147 147 163 147 147 163 147 147 163 146 146 162 146 146 162 146 146 162 146 146 161 145 145 161 145 145 161 145 145 161 145 145 160 144 144 160 144 144 160 144 144 159 143 143 159 143 143 159 143 143 159 143 143 158 142 142 158 142 142 158 142 142 157 142 142 157 141 141 157 141 141 156 141 141 156 141 141 156 140 140 156 140 140 155 140 140 155 140 140 155 139 139 154 139 139 154 139 139 154 139 139 154 138 138 153 138 138 153 138 138 153 138 138 152 137 137 152 137 137 152 137 137 152 137 137 151 136 136
175 157 157 174 157 157 174 157 157 174 157 157 174 156 156 173 156
156 173 156 156 173 156 156 172 155 155 172 155 155 172 155 155 172 155 155 171 154 154 171 154 154 171 154 154 170 153 153 170 153 153 170 153 153 170 153 153 169 152 152 169 152 152 169 152 152 168 152 152 168 151 151 168 151 151 168 151 151 167 151 151 167 150 150 167 150 150 166 150 150 166 150 150 166 149 149 166 149 149 165 149 149 165 149 149 165 148 148 164 148 148 164 148 148 164 148 148 164 147 147 163 147 147 163 147 147 163 147 147 162 146 146 162 146 146 162 146 146 162 145 145 161 145 145 161 145 145 161 145 145 160 144 144 160 144 144 160 144 144 160 144 144 159 143 143 159 143 143 159 143 143 158 143 143 158 142 142 158 142 142 158 142 142 157 142 142 157 141 141 157 141 141 157 141 141 156 141 141 156 140 140 156 140 140 155 140 140 155 140 140 155 139 139 155 139 139 154 139 139 154 139 139 154 138 138 153 138 138 153 138 138 153 138 138 153 137 137 152 137 137
175 158 158 175 157 157 175 157 157 174 157 157 174 157 157 174 156
156 173 156 156 173 156 156 173 156 156 173 155 155 172 155 155 172 155 155 172 155 155 172 154 154 171 154 154 171 154 154 171 154 154 170 153 153 170 153 153 170 153 153 170 153 153 169 152 152 169 152 152 169 152 152 168 152 152 168 151 151 168 151 151 168 151 151 167 151 151 167 150 150 167 150 150 166 150 150 166 150 150 166 149 149 166 149 149 165 149 149 165 149 149 165 148 148 165 148 148 164 148 148 164 148 148 164 147 147 163 147 147 163 147 147 163 147 147 163 146 146 162 146 146 162 146 146 162 146 146 161 145 145 161 145 145 161 145 145 161 145 145 160 144 144 160 144 144 160 144 144 160 144 144 159 143 143 159 143 143 159 143 143 158 143 143 158 142 142 158 142 142 158 142 142 157 142 142 157 141 141 157 141 141 157 141 141 156 141 141 156 140 140 156 140 140 155 140 140 155 140 140 155 139 139 155 139 139 154 139 139 154 139 139 154 138 138 154 138 138 153 138 138
175 158 158 175 158 158 175 158 158 175 157 157 174 157 157 174 157
157 174 157 157 174 156 156 173 156 156 173 156 156 173 156 156 173 155 155 172 155 155 172 155 155 172 155 155 171 154 154 171 154 154 171 154 154 171 154 154 170 153 153 170 153 153 170 153 153 170 153 153 169 152 152 169 152 152 169 152 152 168 152 152 168 151 151 168 151 151 168 151 151 167 151 151 167 150 150 167 150 150 166 150 150 166 150 150 166 149 149 166 149 149 165 149 149 165 149 149 165 148 148 165 148 148 164 148 148 164 148 148 164 147 147 163 147 147 163 147 147 163 147 147 163 146 146 162 146 146 162 146 146 162 146 146 162 145 145 161 145 145 161 145 145 161 145 145 161 145 145 160 144 144 160 144 144 160 144 144 159 144 144 159 143 143 159 143 143 159 143 143 158 143 143 158 142 142 158 142 142 158 142 142 157 142 142 157 141 141 157 141 141 156 141 141 156 141 141 156 140 140 156 140 140 155 140 140 155 140 140 155 139 139 155 139 139 154 139 139 154 139 139
176 158 158 176 158 158 175 158 158 175 158 158 175 157 157 175 157
157 174 157 157 174 157 157 174 156 156 173 156 156 173 156 156 173 156 156 173 155 155 172 155 155 172 155 155 172 155 155 172 154 154 171 154 154 171 154 154 171 154 154 170 153 153 170 153 153 170 153 153 170 153 153 169 153 153 169 152 152 169 152 152 169 152 152 168 152 152 168 151 151 168 151 151 168 151 151 167 151 151 167 150 150 167 150 150 166 150 150 166 150 150 166 149 149 166 149 149 165 149 149 165 149 149 165 148 148 165 148 148 164 148 148 164 148 148 164 147 147 164 147 147 163 147 147 163 147 147 163 147 147 162 146 146 162 146 146 162 146 146 162 146 146 161 145 145 161 145 145 161 145 145 161 145 145 160 144 144 160 144 144 160 144 144 160 144 144 159 143 143 159 143 143 159 143 143 159 143 143 158 142 142 158 142 142 158 142 142 157 142 142 157 142 142 157 141 141 157 141 141 156 141 141 156 141 141 156 140 140 156 140 140 155 140 140 155 140 140 155 139 139
